<?xml version="1.0" encoding="utf-8"?>
<!-- Generator: Adobe Illustrator 28.0.0, SVG Export Plug-In . SVG Version: 6.00 Build 0)  -->
<svg version="1.1" id="Layer_1" xmlns="http://www.w3.org/2000/svg" xmlns:xlink="http://www.w3.org/1999/xlink" x="0px" y="0px"
	 viewBox="0 0 965.44 648.92" style="enable-background:new 0 0 965.44 648.92;" xml:space="preserve">
<style type="text/css">
	.st0{display:none;}
	.st1{display:inline;fill:none;stroke:#000000;stroke-miterlimit:10;}
	.st2{display:none;fill:#FFFFFF;}
	.st3{fill:#FFFFFF;}
</style>
<g class="st0">
	<polygon class="st1" points="1930.87,464.54 482.72,1300.7 -965.44,464.54 482.72,-371.63 	"/>
	<line class="st1" x1="643.62" y1="-278.72" x2="-804.53" y2="557.44"/>
	<line class="st1" x1="804.53" y1="-185.81" x2="-643.62" y2="650.35"/>
	<line class="st1" x1="965.44" y1="-92.91" x2="-482.72" y2="743.26"/>
	<line class="st1" x1="1126.34" y1="0" x2="-321.81" y2="836.16"/>
	<line class="st1" x1="1287.25" y1="92.91" x2="-160.91" y2="929.07"/>
	<line class="st1" x1="1448.15" y1="185.81" x2="0" y2="1021.98"/>
	<line class="st1" x1="1609.06" y1="278.72" x2="160.91" y2="1114.89"/>
	<line class="st1" x1="1769.97" y1="371.63" x2="321.81" y2="1207.79"/>
	<line class="st1" x1="643.62" y1="1207.79" x2="-804.53" y2="371.63"/>
	<line class="st1" x1="804.53" y1="1114.89" x2="-643.62" y2="278.72"/>
	<line class="st1" x1="965.44" y1="1021.98" x2="-482.72" y2="185.81"/>
	<line class="st1" x1="1126.34" y1="929.07" x2="-321.81" y2="92.91"/>
	<line class="st1" x1="1287.25" y1="836.16" x2="-160.91" y2="0"/>
	<line class="st1" x1="1448.15" y1="743.26" x2="0" y2="-92.91"/>
	<line class="st1" x1="1609.06" y1="650.35" x2="160.91" y2="-185.81"/>
	<line class="st1" x1="1769.97" y1="557.44" x2="321.81" y2="-278.72"/>
</g>
<rect x="-965.44" y="-33.19" class="st2" width="86.88" height="86.88"/>
<rect x="-957.13" y="92.08" class="st0" width="113.36" height="107.58"/>
<polygon points="643.62,464.54 643.62,650.35 804.53,557.44 "/>
<path d="M804.53,557.44"/>
<polyline points="804.53,371.63 804.53,557.44 965.44,464.54 965.44,278.72 "/>
<path d="M482.72,185.81"/>
<polygon class="st3" points="482.72,185.81 482.72,557.44 643.62,650.35 643.62,464.54 804.53,557.44 804.53,371.63 965.44,278.72 
	482.72,0 0,278.72 0,464.54 160.91,557.44 160.91,371.63 "/>
<path class="st3" d="M160.91,557.44"/>
<path class="st3" d="M420.06,450.9"/>
<polygon points="160.91,557.44 160.91,371.63 482.72,185.81 482.72,557.44 321.81,650.35 321.81,464.54 "/>
<polygon class="st3" points="160.91,557.44 321.81,464.54 321.81,650.35 "/>
</svg>
